<svg xmlns="http://www.w3.org/2000/svg" width="1280" height="640" viewBox="0 0 1280 640" role="img" aria-label="Lizard Space banner">
  <defs>
    <linearGradient id="sky" x1="0" y1="0" x2="1" y2="1">
      <stop offset="0" stop-color="#100a33"/>
      <stop offset="0.45" stop-color="#442078"/>
      <stop offset="1" stop-color="#101a2c"/>
    </linearGradient>
    <radialGradient id="glow" cx="52%" cy="45%" r="60%">
      <stop offset="0" stop-color="#9b5cff" stop-opacity="0.55"/>
      <stop offset="0.55" stop-color="#4eea8a" stop-opacity="0.12"/>
      <stop offset="1" stop-color="#000000" stop-opacity="0"/>
    </radialGradient>
    <linearGradient id="card" x1="0" y1="0" x2="1" y2="1">
      <stop offset="0" stop-color="#ffffff" stop-opacity="0.18"/>
      <stop offset="1" stop-color="#ffffff" stop-opacity="0.06"/>
    </linearGradient>
    <filter id="blurShadow" x="-30%" y="-30%" width="160%" height="160%">
      <feDropShadow dx="0" dy="28" stdDeviation="30" flood-color="#000" flood-opacity="0.5"/>
    </filter>
    <filter id="softGlow" x="-60%" y="-60%" width="220%" height="220%">
      <feGaussianBlur stdDeviation="7" result="blur"/>
      <feMerge>
        <feMergeNode in="blur"/>
        <feMergeNode in="SourceGraphic"/>
      </feMerge>
    </filter>
  </defs>
  <rect width="1280" height="640" fill="url(#sky)"/>
  <rect width="1280" height="640" fill="url(#glow)"/>
  <g opacity="0.9">
    <circle cx="92" cy="80" r="2" fill="#fff"/><circle cx="164" cy="180" r="2" fill="#b5f7ff"/><circle cx="304" cy="76" r="2" fill="#fff"/><circle cx="1120" cy="104" r="2" fill="#fff"/><circle cx="1010" cy="262" r="3" fill="#caffff"/><circle cx="936" cy="84" r="2" fill="#fff"/><circle cx="1166" cy="338" r="2" fill="#fff"/><circle cx="740" cy="72" r="2" fill="#fff"/><circle cx="674" cy="262" r="2" fill="#ffb8ff"/><circle cx="420" cy="324" r="2" fill="#fff"/>
    <path d="M230 170 L330 110" stroke="#ff8cff" stroke-width="4" stroke-linecap="round" opacity="0.75"/>
    <path d="M874 136 L980 82" stroke="#78f6ff" stroke-width="4" stroke-linecap="round" opacity="0.7"/>
    <path d="M724 360 L855 292" stroke="#e686ff" stroke-width="5" stroke-linecap="round" opacity="0.6"/>
  </g>
  <path d="M0 500 C170 438, 286 470, 420 426 C594 368, 724 470, 880 410 C1040 350, 1160 414, 1280 360 L1280 640 L0 640 Z" fill="#111a2a" opacity="0.82"/>
  <path d="M0 548 C220 488, 390 530, 540 488 C700 444, 834 526, 1010 468 C1120 430, 1200 450, 1280 426 L1280 640 L0 640 Z" fill="#0b1120" opacity="0.9"/>
  <g filter="url(#blurShadow)">
    <rect x="92" y="74" width="1096" height="492" rx="42" fill="url(#card)" stroke="#ffffff" stroke-opacity="0.28"/>
    <rect x="112" y="96" width="1056" height="448" rx="34" fill="#0b101c" opacity="0.35" stroke="#ffffff" stroke-opacity="0.16"/>
  </g>
  <g transform="translate(805 172)">
    <ellipse cx="154" cy="184" rx="148" ry="54" fill="#40ff9a" opacity="0.17"/>
    <path d="M48 190 C42 96, 110 44, 188 76 C252 102, 292 176, 258 246 C230 305, 126 304, 76 250 C58 232, 50 212, 48 190 Z" fill="#31d85b" stroke="#a9ffae" stroke-width="5"/>
    <path d="M74 150 C78 86, 124 48, 186 75 C142 84, 102 122, 74 150 Z" fill="#6bf06d" opacity="0.7"/>
    <path d="M110 126 C138 84, 200 92, 214 130 C180 116, 148 116, 110 126 Z" fill="#132015" opacity="0.28"/>
    <ellipse cx="206" cy="92" rx="33" ry="40" fill="#f2fff7" stroke="#113b18" stroke-width="4"/>
    <circle cx="214" cy="92" r="12" fill="#0b0b0b"/>
    <circle cx="218" cy="86" r="4" fill="#ffffff"/>
    <path d="M80 160 C104 124, 160 130, 210 160 C174 186, 122 190, 80 160 Z" fill="#0b130d"/>
    <path d="M100 166 C132 180, 164 180, 194 164 C174 218, 116 210, 100 166 Z" fill="#ff4da1"/>
    <path d="M196 226 C268 214, 332 246, 362 298 C296 274, 236 266, 174 284 Z" fill="#2ec553" stroke="#a9ffae" stroke-width="5"/>
    <path d="M96 260 L54 326" stroke="#31d85b" stroke-width="22" stroke-linecap="round"/>
    <path d="M182 282 L218 354" stroke="#31d85b" stroke-width="22" stroke-linecap="round"/>
    <path d="M92 200 C46 198, 24 166, 16 130" stroke="#31d85b" stroke-width="18" stroke-linecap="round"/>
    <path d="M250 178 C292 150, 330 128, 370 112" stroke="#31d85b" stroke-width="18" stroke-linecap="round"/>
    <circle cx="96" cy="86" r="7" fill="#8fff75"/><circle cx="132" cy="70" r="5" fill="#8fff75"/><circle cx="242" cy="238" r="6" fill="#1f9f40"/><circle cx="276" cy="250" r="5" fill="#1f9f40"/>
  </g>
  <g transform="translate(155 154)">
    <text x="0" y="0" fill="#f4fff4" font-size="78" font-weight="800" font-family="Segoe UI, Arial, sans-serif" letter-spacing="1">Lizard Space</text>
    <text x="2" y="54" fill="#d6f7dc" font-size="24" font-family="Segoe UI, Arial, sans-serif">A tiny Windows chaos button for Space, Enter &amp; Backspace.</text>
    <g transform="translate(0 102)">
      <rect x="0" y="0" width="165" height="42" rx="21" fill="#69df6d" opacity="0.95"/>
      <text x="82" y="28" text-anchor="middle" fill="#071007" font-size="18" font-weight="800" font-family="Segoe UI, Arial">SPACE = LIZARD</text>
      <rect x="182" y="0" width="165" height="42" rx="21" fill="#9fdcff" opacity="0.92"/>
      <text x="264" y="28" text-anchor="middle" fill="#071321" font-size="18" font-weight="800" font-family="Segoe UI, Arial">ENTER = LIZARD</text>
      <rect x="364" y="0" width="225" height="42" rx="21" fill="#ffb7f7" opacity="0.92"/>
      <text x="476" y="28" text-anchor="middle" fill="#1a0718" font-size="18" font-weight="800" font-family="Segoe UI, Arial">HOLD BACKSPACE = AYAYA</text>
    </g>
    <text x="2" y="206" fill="#ffffff" opacity="0.9" font-size="22" font-family="Segoe UI, Arial">Offline · local · tray app · absolutely unnecessary · deeply important</text>
    <text x="2" y="288" fill="#c7d6cc" font-size="18" font-family="Segoe UI, Arial">Made by thelouismahdi · for my sunshine</text>
  </g>
</svg>